# xmcd
#
# Track frame offsets:
#	150
#	18788
#	39510
#	67218
#	84352
#	121827
#	147217
#	174647
#	202214
#	236941
#
# Disc length: 3663 seconds
#
# Revision: 1
# Processed by: cddbd v1.5.2PL0 Copyright (c) Steve Scherf et al.
# Submitted via: audiograbber 1.83.01
#
DISCID=8c0e4d0a
DTITLE=Dave McCann and The Ten Toed Frogs - Shoot The Horse
DYEAR=2007
DGENRE=Country Rock
TTITLE0=Tinsel Town
TTITLE1=Road To Cain
TTITLE2=Her Tongue Is Not For Sale
TTITLE3=Circle Of Stones
TTITLE4=Joe's Bones
TTITLE5=Blood Pines
TTITLE6=Country Medicine
TTITLE7=Grain Car
TTITLE8=Locomotive Breath
TTITLE9=The Day Leroy Quit His Drinking
EXTD=Recorded Live November 11, 2005 in Edmonton Alberta\nAt The Long Surrender
EXTD=ed Sidetrack Cafe
EXTT0=
EXTT1=
EXTT2=
EXTT3=
EXTT4=
EXTT5=
EXTT6=
EXTT7=
EXTT8=Jethro Tull Cover
EXTT9=
PLAYORDER=
